<?xml version="1.0" standalone="no"?>
<!DOCTYPE svg PUBLIC "-//W3C//DTD SVG 20010904//EN"
 "http://www.w3.org/TR/2001/REC-SVG-20010904/DTD/svg10.dtd">
<svg version="1.0" xmlns="http://www.w3.org/2000/svg"
 width="221.000000pt" height="228.000000pt" viewBox="0 0 221.000000 228.000000"
 preserveAspectRatio="xMidYMid meet">

<g transform="translate(0.000000,228.000000) scale(0.100000,-0.100000)"
fill="#000000" stroke="none">
<path d="M1057 2215 c-4 -8 -18 -15 -32 -15 -30 0 -32 -13 -5 -40 24 -24 30
-24 54 -7 12 9 17 23 14 42 -3 32 -22 44 -31 20z"/>
<path d="M1157 2209 c-4 -16 -11 -19 -26 -14 -26 8 -29 -16 -5 -39 18 -19 28
-20 55 -6 21 12 25 50 7 68 -17 17 -25 15 -31 -9z"/>
<path d="M944 2196 c-3 -9 -17 -16 -30 -16 -27 0 -30 -8 -11 -34 9 -12 23 -17
42 -14 27 3 30 7 30 37 0 36 -21 54 -31 27z"/>
<path d="M1288 2203 c12 -2 32 -2 45 0 12 2 2 4 -23 4 -25 0 -35 -2 -22 -4z"/>
<path d="M1382 2189 c23 -9 26 -15 23 -44 -3 -36 -41 -99 -55 -90 -4 3 -14 -3
-21 -13 -13 -15 -12 -16 4 -3 11 9 17 10 17 2 0 -6 -9 -16 -19 -23 -10 -6 -17
-17 -14 -25 5 -14 64 51 89 99 8 15 20 28 27 28 8 0 9 3 1 8 -20 14 -25 42 -6
42 9 1 2 7 -17 15 -18 8 -38 15 -45 14 -6 0 1 -5 16 -10z"/>
<path d="M835 2170 c-5 -17 -12 -20 -31 -16 -26 7 -30 -4 -14 -35 12 -21 50
-25 68 -7 16 16 15 53 -2 67 -11 10 -16 8 -21 -9z"/>
<path d="M727 2139 c-4 -16 -11 -19 -26 -14 -26 8 -29 -16 -5 -39 38 -38 88 5
68 58 -9 23 -31 20 -37 -5z"/>
<path d="M1350 2156 c0 -2 8 -10 18 -17 15 -13 16 -12 3 4 -13 16 -21 21 -21
13z"/>
<path d="M1250 2125 c0 -8 5 -15 10 -15 6 0 10 7 10 15 0 8 -4 15 -10 15 -5 0
-10 -7 -10 -15z"/>
<path d="M1527 2119 c-4 -16 -11 -19 -26 -14 -16 5 -21 2 -21 -12 0 -43 45
-56 75 -23 15 17 16 24 7 45 -14 30 -28 32 -35 4z"/>
<path d="M1280 2110 c-6 -12 -8 -30 -4 -42 4 -15 3 -18 -6 -13 -9 5 -11 4 -6
-4 12 -18 28 -2 20 21 -4 13 -2 18 4 14 6 -3 8 2 5 13 -3 13 1 21 14 24 16 4
16 5 1 6 -10 0 -22 -8 -28 -19z"/>
<path d="M1365 2110 c3 -5 8 -10 11 -10 2 0 4 5 4 10 0 6 -5 10 -11 10 -5 0
-7 -4 -4 -10z"/>
<path d="M630 2094 c0 -12 -7 -15 -25 -12 -19 4 -25 1 -25 -11 0 -25 20 -41
52 -41 21 0 29 6 34 25 3 14 4 32 0 40 -7 20 -36 19 -36 -1z"/>
<path d="M1320 2096 c7 -7 13 -7 20 0 6 6 3 10 -10 10 -13 0 -16 -4 -10 -10z"/>
<path d="M1617 2069 c-4 -16 -11 -19 -26 -14 -17 5 -21 2 -21 -14 0 -25 33
-44 60 -36 25 8 37 50 20 70 -17 21 -27 19 -33 -6z"/>
<path d="M1100 2059 c0 -4 5 -9 11 -11 8 -3 8 -22 2 -66 -9 -54 -8 -62 6 -62
13 0 15 10 13 61 -3 40 0 64 8 69 7 5 2 9 -14 12 -14 3 -26 2 -26 -3z"/>
<path d="M537 2039 c-4 -16 -11 -19 -27 -14 -18 6 -21 3 -18 -16 5 -32 31 -46
62 -31 28 13 35 49 14 70 -17 17 -25 15 -31 -9z"/>
<path d="M981 2044 c7 -9 13 -42 13 -75 1 -58 1 -59 30 -59 26 0 28 2 14 13
-9 7 -19 36 -23 70 -6 56 -6 57 18 57 14 0 28 -6 30 -12 3 -8 6 -6 6 5 1 14
-8 17 -50 17 -46 0 -50 -2 -38 -16z"/>
<path d="M854 2033 c-21 -4 -21 -4 -3 -40 10 -20 22 -52 25 -70 7 -38 29 -43
65 -14 29 23 31 81 4 111 -17 19 -42 23 -91 13z m63 -11 c13 -8 33 -55 33 -77
0 -23 -31 -48 -44 -35 -11 11 -36 85 -36 108 0 13 28 16 47 4z"/>
<path d="M1270 2010 c0 -11 2 -20 4 -20 2 0 6 9 9 20 3 11 1 20 -4 20 -5 0 -9
-9 -9 -20z"/>
<path d="M1707 2008 c-4 -15 -11 -19 -26 -15 -27 7 -34 -17 -11 -38 36 -33 89
0 75 45 -9 27 -32 32 -38 8z"/>
<path d="M1037 2003 c-3 -4 1 -17 9 -28 10 -13 14 -15 14 -4 0 20 -16 43 -23
32z"/>
<path d="M455 1980 c-5 -15 -13 -20 -26 -17 -27 7 -34 -11 -13 -34 24 -26 50
-24 70 7 16 24 16 26 -3 46 l-21 20 -7 -22z"/>
<path d="M1790 1949 c0 -17 -5 -20 -25 -17 -19 4 -25 1 -25 -11 0 -38 55 -56
80 -26 15 18 6 61 -15 69 -10 4 -15 -1 -15 -15z"/>
<path d="M1471 1934 c-43 -54 -12 -133 41 -106 23 11 23 11 -4 6 -30 -7 -47
15 -40 51 11 61 87 89 87 32 -1 -24 1 -25 14 -12 23 23 2 49 -41 53 -29 2 -40
-2 -57 -24z"/>
<path d="M1066 1935 c-3 -8 -1 -15 4 -15 6 0 10 7 10 15 0 8 -2 15 -4 15 -2 0
-6 -7 -10 -15z"/>
<path d="M1287 1929 c-4 -16 -11 -19 -26 -14 -17 5 -21 2 -21 -14 0 -25 33
-44 60 -36 25 8 37 50 20 70 -17 21 -27 19 -33 -6z"/>
<path d="M375 1910 c-5 -17 -12 -20 -31 -16 -17 5 -24 2 -24 -7 0 -18 32 -47
53 -47 24 0 47 38 38 63 -11 29 -28 32 -36 7z"/>
<path d="M1572 1877 c-43 -46 -34 -117 14 -117 45 0 94 50 94 95 0 45 -73 60
-108 22z m87 -5 c13 -24 -19 -78 -54 -94 -21 -9 -29 -9 -41 4 -13 13 -14 20
-4 39 33 63 80 87 99 51z"/>
<path d="M1865 1869 c-5 -14 -13 -19 -26 -16 -26 7 -31 -5 -13 -31 20 -29 50
-28 69 2 13 19 14 29 5 45 -14 27 -27 27 -35 0z"/>
<path d="M498 1840 c-22 -19 -28 -30 -18 -30 21 0 103 -84 93 -94 -5 -5 2 -2
15 5 14 9 17 15 10 18 -14 4 -38 31 -38 42 0 5 17 2 38 -5 22 -8 44 -11 50 -7
6 4 -8 13 -32 20 -34 10 -43 16 -39 30 5 18 -20 51 -38 51 -5 0 -23 -13 -41
-30z m52 -5 c7 -8 9 -22 6 -31 -6 -15 -9 -14 -31 6 -19 18 -22 26 -13 32 18
11 24 10 38 -7z"/>
<path d="M307 1828 c-4 -15 -11 -19 -26 -15 -30 7 -37 -12 -13 -35 36 -37 94
0 76 47 -9 23 -32 25 -37 3z"/>
<path d="M1344 1826 c-3 -9 -17 -16 -30 -16 -27 0 -28 -3 -14 -31 22 -40 85
-14 78 32 -4 27 -26 37 -34 15z"/>
<path d="M1675 1774 l-50 -52 26 -30 c23 -25 28 -27 44 -15 18 12 17 13 -7 13
-15 0 -30 5 -34 11 -9 15 77 101 95 94 10 -4 9 0 -4 15 -10 11 -19 19 -19 19
-1 -1 -24 -26 -51 -55z"/>
<path d="M943 1598 c-425 -642 -594 -900 -591 -903 2 -2 335 -6 741 -10 l738
-7 -34 53 c-194 302 -551 836 -565 843 -25 13 -42 37 -42 60 0 15 -95 176
-104 176 -1 0 -65 -96 -143 -212z m178 62 c29 -16 26 -75 -6 -96 -29 -19 -60
-11 -81 20 -34 54 27 107 87 76z m198 -485 c127 -189 231 -347 231 -350 0 -3
-74 -5 -165 -5 -91 0 -165 4 -165 8 0 4 14 16 30 25 43 26 61 68 63 146 2 60
-1 72 -26 105 -35 45 -69 60 -124 52 l-43 -6 0 80 0 79 28 -2 c24 -2 27 1 30
36 3 35 2 37 -27 37 -29 0 -31 2 -31 39 0 38 0 38 -32 32 -30 -6 -33 -11 -33
-42 0 -23 -4 -33 -14 -31 -30 6 -51 -9 -51 -39 0 -26 3 -29 30 -29 l30 0 0
-79 c0 -77 0 -78 -23 -74 -46 9 -104 -15 -136 -56 -30 -38 -31 -42 -31 -139 0
-55 -3 -107 -6 -116 -5 -13 -25 -16 -119 -16 l-112 0 229 345 c126 190 231
345 233 345 1 0 107 -155 234 -345z m-344 295 c19 -7 18 -9 -7 -19 -19 -7 -28
-18 -28 -33 0 -13 -4 -29 -9 -37 -8 -12 -13 -12 -34 2 -23 15 -26 15 -32 0 -4
-11 2 -23 16 -34 13 -9 17 -19 11 -22 -5 -4 -15 0 -22 8 -8 10 -21 13 -33 9
-17 -5 -16 -1 9 32 15 22 29 41 31 43 2 2 12 -4 23 -14 24 -22 36 -14 21 13
-19 35 -14 62 12 61 12 0 31 -4 42 -9z m319 -52 c9 -12 13 -24 10 -27 -3 -3
-10 2 -15 12 -11 19 -34 23 -44 7 -12 -19 19 -50 50 -50 45 0 56 -16 36 -51
-19 -34 -32 -38 -28 -8 1 12 -6 26 -18 33 -44 25 -69 78 -48 99 13 14 42 6 57
-15z m-446 -111 c26 -27 20 -37 -21 -37 -29 0 -30 0 -12 -20 26 -29 9 -38 -20
-10 -29 28 -24 40 17 40 29 0 30 1 15 18 -34 37 -13 45 21 9z m549 -61 c-2 -6
-10 -11 -18 -11 -8 0 -17 -4 -21 -10 -10 -14 -19 0 -12 19 4 9 13 15 20 12 8
-3 14 -1 14 4 0 12 -20 13 -40 1 -8 -6 -18 -7 -23 -4 -5 3 4 13 20 23 27 18
28 18 46 -2 10 -12 16 -26 14 -32z m-635 -18 c-7 -7 -12 -16 -12 -22 0 -6 5
-5 12 2 17 17 33 15 18 -3 -7 -9 -10 -18 -6 -22 3 -4 13 2 21 13 8 10 14 15
14 9 0 -5 -6 -19 -14 -29 -13 -18 -16 -18 -40 -2 -14 9 -25 20 -25 24 0 13 32
53 38 47 3 -3 0 -11 -6 -17z m658 -8 c0 -10 -32 -30 -49 -30 -19 0 -12 17 12
28 28 14 37 14 37 2z m50 -74 c0 -5 -7 -3 -15 4 -12 10 -19 10 -27 2 -14 -14
-38 -16 -38 -3 0 5 9 13 20 16 11 3 20 14 20 23 0 13 5 11 20 -8 11 -14 20
-29 20 -34z m-720 9 c15 -16 19 -25 10 -25 -15 0 -50 29 -50 42 0 15 16 8 40
-17z m-32 -33 c2 -12 -2 -22 -8 -22 -6 0 -9 4 -5 9 3 5 1 12 -5 16 -16 10 -12
-17 7 -37 23 -26 11 -32 -18 -9 -21 17 -22 22 -11 46 14 30 35 29 40 -3z m359
-38 c12 -17 14 -17 38 6 20 19 31 22 72 17 66 -7 83 -31 83 -114 0 -58 -3 -67
-29 -94 -27 -26 -36 -29 -96 -29 -87 0 -85 23 2 30 73 6 90 19 98 75 10 62
-14 105 -58 105 -43 0 -75 -24 -79 -58 -3 -28 -32 -39 -34 -12 -1 8 -2 21 -3
27 0 7 -11 19 -24 28 -28 18 -92 4 -107 -25 -5 -10 -10 -53 -10 -94 0 -61 -3
-76 -15 -76 -12 0 -15 17 -15 91 0 88 1 92 30 121 28 28 35 30 82 26 34 -4 56
-12 65 -24z m423 14 c-1 -7 -7 -24 -15 -38 -9 -18 -10 -29 -3 -37 16 -19 28
-16 28 8 0 27 34 22 37 -6 2 -11 0 -14 -3 -7 -9 19 -24 14 -24 -8 0 -11 -7
-20 -15 -20 -17 0 -47 42 -44 62 3 28 -2 39 -23 48 -19 7 -16 9 20 9 27 1 42
-3 42 -11z m-806 -44 c9 -3 14 -10 11 -15 -3 -4 -12 -6 -19 -3 -14 5 -30 -24
-24 -42 3 -10 -30 -74 -38 -74 -3 0 -2 9 1 20 6 18 3 20 -20 14 -24 -6 -26 -4
-23 16 1 13 9 25 16 28 7 2 10 -2 6 -11 -4 -11 1 -15 20 -13 19 1 25 5 20 16
-3 8 -8 27 -11 43 -5 24 -2 27 20 27 14 0 32 -3 41 -6z m504 -64 c4 -54 -5
-60 -90 -60 l-68 0 0 -50 0 -50 -35 0 -34 0 5 88 c7 109 9 114 36 110 18 -2
24 -11 26 -35 3 -33 4 -33 58 -33 l54 0 0 34 c0 32 13 47 35 42 6 -1 11 -22
13 -46z m-268 -205 c10 -12 10 -18 0 -30 -22 -27 -80 -16 -80 15 0 31 58 41
80 15z m85 6 c3 -5 0 -13 -6 -16 -5 -4 -8 -14 -5 -22 4 -9 1 -13 -6 -10 -7 2
-12 14 -11 26 2 11 -2 21 -7 21 -6 0 -10 -11 -10 -25 0 -14 -4 -25 -10 -25 -5
0 -10 14 -10 30 0 27 3 30 29 30 17 0 32 -4 36 -9z m77 -16 c12 -28 2 -48 -12
-25 -8 13 -13 13 -31 2 -31 -19 -36 -6 -9 23 29 31 38 31 52 0z m74 -1 c-9 -8
-16 -20 -16 -25 0 -5 -5 -9 -11 -9 -6 0 -9 9 -6 20 3 10 0 21 -7 24 -6 2 4 5
22 5 30 1 32 0 18 -15z m44 -9 c0 -14 -4 -25 -10 -25 -5 0 -10 11 -10 25 0 14
5 25 10 25 6 0 10 -11 10 -25z m97 9 c8 -22 -25 -46 -51 -38 -30 9 -40 20 -33
38 9 22 75 22 84 0z"/>
<path d="M1090 1634 c0 -12 -7 -15 -25 -12 -19 4 -25 1 -25 -11 0 -23 20 -41
46 -41 30 0 48 24 40 55 -7 27 -36 35 -36 9z"/>
<path d="M961 1291 c-19 -12 -6 -43 16 -39 10 2 18 12 18 22 0 22 -14 29 -34
17z"/>
<path d="M1153 1253 c-18 -6 -16 -43 1 -43 22 0 39 26 24 37 -7 6 -19 8 -25 6z"/>
<path d="M1211 1231 c-19 -12 -6 -43 16 -39 10 2 18 12 18 22 0 22 -14 29 -34
17z"/>
<path d="M941 1211 c-18 -11 -5 -31 20 -31 12 0 19 7 19 20 0 21 -16 26 -39
11z"/>
<path d="M801 1041 c-14 -9 -9 -41 7 -41 15 0 34 28 27 40 -8 12 -16 13 -34 1z"/>
<path d="M1361 1031 c-19 -12 -6 -43 16 -39 10 2 18 12 18 22 0 22 -14 29 -34
17z"/>
<path d="M811 971 c-14 -9 -9 -41 7 -41 15 0 34 28 27 40 -8 12 -16 13 -34 1z"/>
<path d="M1413 963 c-17 -6 -16 -30 1 -36 17 -7 40 18 31 33 -7 11 -13 11 -32
3z"/>
<path d="M741 951 c-18 -11 -5 -31 20 -31 12 0 19 7 19 20 0 21 -16 26 -39 11z"/>
<path d="M1350 940 c-18 -11 -4 -42 17 -38 10 2 19 10 21 19 4 19 -19 31 -38
19z"/>
<path d="M780 885 c-10 -11 -10 -19 -2 -27 15 -15 44 -2 40 19 -4 23 -22 27
-38 8z"/>
<path d="M691 877 c-6 -6 -11 -17 -11 -25 0 -19 44 -11 48 9 4 20 -22 31 -37
16z"/>
<path d="M1333 873 c-17 -6 -16 -30 1 -36 17 -7 40 18 31 33 -7 11 -13 11 -32
3z"/>
<path d="M1441 871 c-14 -9 -9 -41 7 -41 15 0 34 28 27 40 -8 12 -16 13 -34 1z"/>
<path d="M875 780 c-4 -7 -3 -16 3 -22 14 -14 45 -2 40 15 -6 16 -34 21 -43 7z"/>
<path d="M1240 765 c0 -9 9 -15 25 -15 16 0 25 6 25 15 0 9 -9 15 -25 15 -16
0 -25 -6 -25 -15z"/>
<path d="M1930 1789 c0 -17 -5 -20 -25 -17 -19 4 -25 1 -25 -11 0 -23 20 -41
45 -41 12 0 26 5 33 12 22 22 8 78 -20 78 -4 0 -8 -10 -8 -21z"/>
<path d="M409 1749 c-17 -22 -26 -39 -18 -37 17 3 109 -59 109 -74 0 -14 38
20 52 46 7 13 6 22 -5 33 -13 13 -14 12 -10 -9 7 -35 -17 -52 -45 -32 -28 20
-28 34 1 34 22 1 22 1 2 16 -18 13 -20 13 -28 -8 l-8 -22 -21 22 c-18 17 -19
23 -8 36 7 9 19 16 27 16 8 0 11 5 8 10 -11 17 -23 11 -56 -31z"/>
<path d="M235 1719 c-7 -29 -9 -30 -42 -24 -33 6 -34 5 -31 -21 4 -37 46 -67
82 -58 55 14 67 97 17 123 -17 10 -20 7 -26 -20z"/>
<path d="M1331 1722 c-7 -14 -17 -18 -31 -15 -27 7 -27 -21 1 -41 33 -23 64
-6 64 34 0 39 -19 50 -34 22z"/>
<path d="M1800 1732 c0 -6 -24 -28 -54 -49 l-53 -39 22 -32 c19 -28 24 -30 40
-18 17 12 16 13 -6 12 -42 -2 -34 30 18 68 26 19 51 32 55 30 14 -9 8 13 -7
26 -10 8 -15 9 -15 2z"/>
<path d="M1980 1689 c0 -18 -4 -20 -25 -15 -29 7 -34 -13 -9 -38 30 -30 74
-13 74 29 0 21 -17 45 -32 45 -4 0 -8 -9 -8 -21z"/>
<path d="M341 1648 c-27 -48 -28 -53 -13 -64 22 -16 29 -9 12 11 -9 11 -10 19
-2 27 14 14 125 -48 116 -65 -3 -7 2 -3 10 7 18 22 21 40 6 31 -12 -7 -110 52
-110 66 0 5 10 13 22 18 18 6 19 9 5 14 -13 5 -24 -7 -46 -45z"/>
<path d="M1257 1649 c-4 -16 -11 -19 -26 -14 -32 10 -28 -32 4 -47 21 -9 28
-8 45 7 23 20 26 45 8 63 -17 17 -25 15 -31 -9z"/>
<path d="M1870 1634 c0 -13 -91 -64 -113 -64 -13 0 -12 -7 5 -42 26 -54 23
-52 45 -39 16 9 16 10 1 11 -10 0 -22 9 -28 21 -9 17 -8 23 7 35 27 20 46 18
40 -6 -6 -22 -5 -23 18 -14 15 6 15 8 -1 25 -16 17 -15 19 10 31 23 10 29 9
37 -3 5 -8 7 -24 4 -36 -4 -17 -2 -21 10 -17 8 4 15 9 15 13 -1 12 -49 96 -50
85z"/>
<path d="M2031 1602 c-7 -14 -17 -18 -31 -15 -29 8 -26 -23 4 -42 36 -24 68
-5 64 37 -4 37 -22 47 -37 20z"/>
<path d="M177 1578 c-4 -15 -11 -19 -26 -15 -25 6 -29 -24 -6 -43 33 -27 83 9
70 50 -9 27 -32 32 -38 8z"/>
<path d="M335 1472 c60 -58 75 -65 75 -35 0 9 -3 13 -6 10 -4 -3 -15 -2 -25 4
-15 8 -17 14 -9 29 12 21 46 27 52 9 2 -6 9 -1 14 12 l11 24 -86 3 -86 2 60
-58z m35 34 c0 -2 -3 -11 -6 -20 -5 -12 -10 -13 -25 -5 -27 14 -24 29 6 29 14
0 25 -2 25 -4z"/>
<path d="M2076 1504 c-4 -10 -14 -14 -26 -11 -23 6 -28 -21 -8 -41 32 -32 87
4 73 48 -8 24 -30 26 -39 4z"/>
<path d="M135 1479 c-5 -14 -13 -19 -26 -16 -26 7 -31 -5 -13 -31 19 -27 45
-28 69 -2 15 17 16 24 7 45 -14 30 -28 32 -37 4z"/>
<path d="M1829 1471 c-32 -33 -35 -45 -15 -80 9 -17 23 -24 44 -25 28 -1 31 1
25 24 -7 31 -13 38 -13 17 0 -23 -46 -22 -55 0 -9 25 46 73 83 73 49 0 67 -37
35 -72 -15 -17 -15 -18 5 -18 18 0 22 6 22 33 0 74 -76 102 -131 48z"/>
<path d="M250 1422 c0 -32 3 -37 20 -35 36 4 110 -19 110 -34 0 -22 6 -14 14
20 5 20 3 27 -4 22 -16 -10 -113 15 -127 33 -12 14 -13 13 -13 -6z"/>
<path d="M2104 1405 c-4 -8 -17 -15 -30 -15 -27 0 -28 -3 -14 -31 15 -26 66
-26 80 1 8 14 8 26 0 40 -13 24 -28 26 -36 5z"/>
<path d="M110 1375 c0 -13 -6 -16 -25 -13 -19 4 -25 1 -25 -11 0 -23 20 -41
46 -41 28 0 46 23 42 52 -4 27 -38 38 -38 13z"/>
<path d="M270 1376 c0 -2 17 -15 37 -27 l37 -23 -53 -12 c-61 -13 -58 -11 -65
-49 -3 -17 -3 -24 0 -17 4 7 27 12 65 12 47 0 61 -4 66 -17 6 -15 7 -15 14 3
13 32 11 50 -3 36 -13 -13 -108 -17 -108 -4 0 5 28 15 62 23 l61 14 -52 33
c-52 32 -61 36 -61 28z"/>
<path d="M1963 1346 c-12 -14 -108 -30 -123 -21 -11 7 -12 -14 -4 -67 5 -30
11 -38 27 -38 19 0 19 1 4 13 -9 6 -18 23 -19 37 -3 22 1 25 30 28 36 4 45
-19 15 -37 -17 -10 -16 -10 2 -11 11 0 27 5 35 10 10 6 11 10 3 10 -7 0 -13
10 -13 21 0 18 5 21 30 17 27 -4 30 -2 30 24 0 32 -1 32 -17 14z"/>
<path d="M2120 1275 c0 -30 -20 -41 -49 -26 -14 8 -22 8 -26 0 -13 -20 6 -59
35 -74 27 -14 33 -14 59 -1 46 24 55 72 21 106 -27 27 -40 25 -40 -5z"/>
<path d="M1980 1278 c0 -6 -7 -20 -17 -30 -15 -17 -15 -18 5 -18 18 0 22 6 22
30 0 17 -2 30 -5 30 -3 0 -5 -5 -5 -12z"/>
<path d="M100 1264 c0 -12 -7 -15 -25 -12 -19 4 -25 1 -25 -11 0 -23 20 -41
46 -41 30 0 48 24 40 55 -7 27 -36 35 -36 9z"/>
<path d="M87 1151 c-3 -14 -11 -18 -26 -14 -31 8 -29 -34 3 -48 45 -21 79 16
60 65 -8 22 -31 20 -37 -3z"/>
<path d="M259 1127 c-46 -31 -55 -50 -41 -81 40 -88 164 -28 127 61 -17 40
-47 47 -86 20z"/>
<path d="M2120 1124 c0 -12 -7 -15 -26 -11 -22 4 -25 1 -22 -22 2 -21 9 -27
34 -29 38 -4 59 18 50 53 -7 27 -36 35 -36 9z"/>
<path d="M1900 1114 c-54 -36 -64 -70 -30 -104 26 -26 81 -26 103 -2 23 25 21
78 -3 102 -24 24 -38 25 -70 4z"/>
<path d="M93 1041 c-8 -13 -19 -18 -33 -14 -25 7 -26 -8 -2 -37 33 -41 97 4
72 50 -13 25 -22 25 -37 1z"/>
<path d="M2106 1015 c-3 -8 -15 -15 -26 -15 -27 0 -27 -36 0 -50 39 -21 87 32
60 65 -16 19 -26 19 -34 0z"/>
<path d="M107 929 c-4 -16 -11 -19 -26 -14 -17 5 -21 2 -21 -14 0 -25 33 -44
60 -36 25 8 37 50 20 70 -17 21 -27 19 -33 -6z"/>
<path d="M2083 905 c-3 -9 -15 -15 -26 -13 -26 4 -32 -15 -12 -36 23 -22 51
-20 69 6 11 15 12 26 5 40 -12 22 -28 23 -36 3z"/>
<path d="M136 814 c-4 -10 -14 -14 -26 -11 -23 6 -28 -21 -8 -41 32 -32 87 4
73 48 -8 24 -30 26 -39 4z"/>
<path d="M2044 816 c-3 -9 -17 -16 -31 -16 -30 0 -28 -26 2 -46 41 -27 88 35
50 66 -12 10 -16 9 -21 -4z"/>
<path d="M175 710 c-5 -15 -12 -19 -25 -15 -25 8 -32 -8 -14 -33 19 -27 45
-28 69 -2 15 17 16 24 7 45 -14 30 -28 32 -37 5z"/>
<path d="M1996 714 c-4 -10 -14 -14 -26 -11 -16 4 -20 0 -20 -18 0 -13 7 -26
16 -29 46 -18 81 7 70 49 -7 28 -31 33 -40 9z"/>
<path d="M650 620 c0 -16 2 -30 4 -30 2 0 6 14 8 30 3 17 1 30 -4 30 -4 0 -8
-13 -8 -30z"/>
<path d="M770 620 c0 -28 3 -31 27 -28 26 3 48 38 24 38 -6 0 -10 -6 -8 -12 1
-7 -5 -13 -13 -13 -8 0 -14 7 -12 17 1 9 -2 19 -8 23 -6 4 -10 -6 -10 -25z"/>
<path d="M1157 636 c-14 -35 -8 -46 23 -46 27 0 30 3 30 30 0 17 -5 30 -11 30
-5 0 -7 -4 -4 -10 3 -5 0 -10 -9 -10 -8 0 -16 5 -18 12 -3 7 -7 5 -11 -6z m38
-26 c3 -5 -1 -10 -9 -10 -9 0 -16 5 -16 10 0 6 4 10 9 10 6 0 13 -4 16 -10z"/>
<path d="M1300 623 c0 -18 2 -33 4 -33 9 0 13 39 5 51 -6 10 -9 4 -9 -18z"/>
<path d="M1447 626 c-4 -15 -6 -31 -2 -34 10 -10 16 6 13 35 l-3 28 -8 -29z"/>
<path d="M1950 620 c-8 -15 -17 -19 -31 -15 -24 8 -26 -17 -3 -39 18 -19 28
-20 55 -6 22 12 25 52 5 69 -12 10 -17 8 -26 -9z"/>
<path d="M701 613 c-1 -31 44 -33 52 -3 3 11 1 20 -4 20 -5 0 -9 -7 -9 -15 0
-21 -28 -19 -33 3 -4 13 -5 11 -6 -5z"/>
<path d="M840 610 c0 -11 5 -20 10 -20 6 0 10 9 10 20 0 11 -4 20 -10 20 -5 0
-10 -9 -10 -20z"/>
<path d="M877 623 c-14 -13 -6 -33 13 -33 13 0 18 -5 14 -15 -5 -11 -2 -13 10
-9 17 7 23 64 6 64 -5 0 -9 -5 -7 -11 1 -6 -4 -14 -12 -17 -10 -3 -12 0 -8 12
6 16 -4 22 -16 9z"/>
<path d="M945 620 c-10 -16 4 -30 31 -30 17 0 24 5 24 20 0 11 -4 20 -10 20
-5 0 -7 -7 -4 -15 4 -10 0 -15 -11 -15 -11 0 -15 5 -11 15 6 17 -9 21 -19 5z"/>
<path d="M1020 610 c0 -11 2 -20 4 -20 2 0 6 9 9 20 3 11 1 20 -4 20 -5 0 -9
-9 -9 -20z"/>
<path d="M1060 610 c0 -11 5 -20 10 -20 6 0 10 9 10 20 0 11 -4 20 -10 20 -5
0 -10 -9 -10 -20z"/>
<path d="M1227 624 c-12 -12 6 -34 29 -34 17 0 24 6 24 20 0 11 -4 20 -10 20
-5 0 -7 -7 -4 -15 4 -10 0 -15 -11 -15 -11 0 -15 5 -11 15 5 15 -5 21 -17 9z"/>
<path d="M1340 610 c0 -11 5 -20 10 -20 6 0 10 9 10 20 0 11 -4 20 -10 20 -5
0 -10 -9 -10 -20z"/>
<path d="M1377 623 c-12 -19 1 -33 29 -33 17 0 24 5 24 20 0 11 -4 20 -10 20
-5 0 -7 -7 -4 -15 4 -9 0 -15 -9 -15 -9 0 -17 8 -19 18 -3 12 -6 14 -11 5z"/>
<path d="M237 601 c-3 -14 -11 -18 -26 -14 -16 4 -21 1 -21 -15 0 -25 33 -46
60 -37 22 7 34 37 25 65 -8 26 -31 26 -38 1z"/>
<path d="M1883 531 c-8 -13 -19 -18 -34 -14 -18 5 -21 3 -16 -11 4 -10 7 -19
7 -21 0 -3 9 -9 20 -15 38 -21 80 22 60 61 -13 24 -22 24 -37 0z"/>
<path d="M757 534 c-10 -11 -8 -52 3 -59 6 -4 10 7 10 24 0 17 5 31 11 31 6 0
8 -7 5 -16 -4 -10 -1 -14 6 -12 21 7 15 33 -7 36 -12 2 -24 0 -28 -4z"/>
<path d="M820 504 c0 -21 4 -33 10 -29 6 3 10 13 10 21 0 23 28 16 33 -8 4
-20 4 -19 6 5 1 21 -4 27 -19 27 -11 0 -20 5 -20 10 0 6 -4 10 -10 10 -5 0
-10 -16 -10 -36z"/>
<path d="M933 505 c0 -22 2 -30 4 -17 2 12 2 30 0 40 -3 9 -5 -1 -4 -23z"/>
<path d="M328 493 c-3 -28 -15 -33 -50 -18 -26 10 -24 -39 2 -65 41 -41 110
-13 110 45 0 58 -56 91 -62 38z"/>
<path d="M902 495 c0 -16 2 -22 5 -12 2 9 2 23 0 30 -3 6 -5 -1 -5 -18z"/>
<path d="M962 495 c0 -16 2 -22 5 -12 2 9 2 23 0 30 -3 6 -5 -1 -5 -18z"/>
<path d="M991 483 c1 -21 3 -30 6 -21 2 9 10 15 17 12 16 -6 40 21 31 36 -3 5
-17 10 -31 10 -21 0 -24 -4 -23 -37z m39 11 c0 -9 -5 -14 -12 -12 -18 6 -21
28 -4 28 9 0 16 -7 16 -16z"/>
<path d="M1061 483 c0 -22 3 -32 7 -23 4 8 16 15 27 15 33 0 26 39 -7 43 -26
3 -28 1 -27 -35z m39 12 c0 -8 -4 -15 -10 -15 -5 0 -10 7 -10 15 0 8 5 15 10
15 6 0 10 -7 10 -15z"/>
<path d="M1130 494 c0 -14 4 -23 10 -19 6 3 10 15 10 26 0 10 -4 19 -10 19 -5
0 -10 -12 -10 -26z"/>
<path d="M1160 494 c0 -14 4 -23 10 -19 6 3 10 13 10 21 0 23 28 16 33 -8 4
-20 4 -19 6 5 1 24 -3 27 -29 27 -26 0 -30 -4 -30 -26z"/>
<path d="M1242 498 c2 -14 11 -24 23 -26 18 -2 18 -2 3 8 -24 15 -23 33 2 25
11 -4 20 -2 20 4 0 6 -12 11 -26 11 -21 0 -25 -4 -22 -22z"/>
<path d="M1314 503 c4 -9 1 -20 -6 -25 -10 -6 -9 -8 4 -8 21 0 32 16 17 26 -8
4 -7 9 2 15 11 7 10 9 -5 9 -13 0 -16 -5 -12 -17z"/>
<path d="M597 473 c-11 -13 -28 -28 -39 -32 -18 -6 -18 -8 -4 -20 13 -11 16
-11 16 1 0 14 30 48 43 48 3 0 0 -18 -8 -41 -14 -40 -14 -40 8 -33 32 10 58
27 28 18 -22 -6 -23 -4 -16 34 8 48 -4 59 -28 25z"/>
<path d="M1504 489 c-7 -10 -1 -22 23 -46 18 -17 36 -27 39 -22 3 6 -5 20 -19
32 -13 12 -26 28 -29 36 -3 11 -5 11 -14 0z"/>
<path d="M1807 449 c-4 -16 -11 -20 -26 -16 -24 6 -29 -21 -9 -41 28 -28 78
-7 78 33 0 20 -17 45 -31 45 -4 0 -9 -10 -12 -21z"/>
<path d="M1451 441 c-7 -5 -9 -10 -5 -12 5 -2 21 -18 36 -36 22 -28 28 -30 38
-18 10 12 9 15 -3 15 -8 0 -23 13 -34 30 -13 20 -23 26 -32 21z"/>
<path d="M670 416 c0 -8 -11 -23 -24 -33 l-24 -19 21 -14 c12 -7 19 -9 15 -5
-5 5 3 23 17 41 29 38 30 44 10 44 -8 0 -15 -6 -15 -14z"/>
<path d="M1396 405 c-11 -8 -15 -15 -8 -15 6 0 22 -16 35 -35 13 -19 27 -32
30 -29 3 4 -5 22 -18 42 -13 19 -22 39 -19 44 7 11 2 10 -20 -7z"/>
<path d="M426 374 c-4 -11 -13 -14 -27 -11 -17 5 -20 1 -17 -21 2 -22 9 -28
35 -30 39 -4 60 25 43 58 -13 24 -26 26 -34 4z"/>
<path d="M707 369 c-8 -11 -13 -28 -10 -38 6 -22 46 -45 65 -38 7 3 4 6 -8 6
-12 1 -27 8 -34 16 -18 21 2 62 32 68 21 4 20 4 -4 6 -17 0 -32 -7 -41 -20z"/>
<path d="M1351 381 c-8 -5 -9 -11 -3 -15 5 -3 12 1 16 9 6 17 6 18 -13 6z"/>
<path d="M1737 370 c-4 -17 -11 -21 -26 -17 -29 7 -34 -7 -13 -33 14 -18 25
-21 45 -16 35 8 45 43 19 68 -19 20 -19 20 -25 -2z"/>
<path d="M787 359 c4 -13 8 -18 11 -10 2 7 -1 18 -6 23 -8 8 -9 4 -5 -13z"/>
<path d="M822 337 c-1 -17 1 -19 8 -7 7 11 10 5 10 -21 0 -49 9 -54 42 -22 29
28 35 22 19 -20 -7 -19 -6 -27 3 -30 7 -3 13 0 13 6 0 7 3 29 7 50 8 43 -1 47
-34 12 -26 -27 -40 -20 -40 21 0 29 -25 38 -28 11z"/>
<path d="M1292 351 c-9 -5 -5 -11 13 -19 14 -6 25 -16 25 -21 0 -5 8 -7 19 -4
10 3 22 0 25 -6 4 -5 14 -7 22 -4 12 5 9 9 -12 18 -16 7 -32 11 -35 11 -4 -1
-15 7 -26 16 -11 10 -24 14 -31 9z"/>
<path d="M1240 326 c0 -21 -20 -30 -33 -17 -6 6 -17 11 -25 11 -9 0 -4 -8 11
-21 25 -19 26 -21 11 -45 -10 -15 -12 -24 -5 -24 6 0 11 6 11 14 0 22 22 31
34 14 7 -9 18 -12 29 -9 17 6 16 8 -7 21 -29 15 -31 22 -16 51 7 13 7 19 0 19
-5 0 -10 -6 -10 -14z"/>
<path d="M513 301 c-8 -13 -19 -18 -33 -14 -29 8 -26 -23 4 -42 36 -24 68 -5
64 37 -4 37 -19 45 -35 19z"/>
<path d="M970 280 c0 -22 -1 -43 -2 -47 -1 -5 7 -9 18 -11 14 -2 15 -1 6 6 -9
6 -11 21 -6 50 4 29 3 42 -5 42 -6 0 -11 -17 -11 -40z"/>
<path d="M1125 300 c-7 -24 -23 -26 -31 -5 -4 8 -13 15 -22 15 -12 0 -11 -5 6
-23 l22 -24 -20 -18 c-11 -10 -18 -21 -15 -24 3 -2 13 5 21 18 12 17 19 20 30
10 7 -6 11 -15 8 -20 -3 -5 4 -9 15 -9 27 0 26 7 -1 30 -21 17 -21 18 -5 44
10 14 13 26 8 26 -5 0 -13 -9 -16 -20z"/>
<path d="M1646 304 c-4 -11 -13 -14 -27 -11 -17 5 -20 1 -17 -21 3 -23 8 -27
37 -27 40 0 62 25 45 52 -15 24 -30 27 -38 7z"/>
<path d="M798 290 c-15 -17 -15 -18 0 -22 12 -4 17 2 18 19 1 12 1 23 0 22 0
0 -8 -9 -18 -19z"/>
<path d="M1317 276 c-4 -10 -1 -13 8 -9 8 3 12 9 9 14 -7 12 -11 11 -17 -5z"/>
<path d="M620 245 c0 -13 -6 -16 -25 -13 -19 4 -25 1 -25 -11 0 -23 20 -41 46
-41 28 0 46 23 42 52 -4 27 -38 38 -38 13z"/>
<path d="M1515 229 c-5 -22 -12 -30 -23 -26 -10 2 -23 6 -31 8 -21 6 -25 -28
-7 -56 30 -45 104 -29 121 25 9 28 -21 79 -47 80 -3 0 -9 -14 -13 -31z"/>
<path d="M1020 230 c-13 -8 -13 -10 2 -10 9 0 20 5 23 10 8 13 -5 13 -25 0z"/>
<path d="M726 194 c-4 -10 -14 -14 -25 -11 -35 9 -35 -35 0 -53 38 -21 79 23
59 61 -13 23 -26 24 -34 3z"/>
<path d="M837 161 c-3 -14 -11 -18 -26 -14 -26 7 -29 -18 -5 -41 20 -20 38
-20 58 0 19 18 21 45 4 62 -17 17 -25 15 -31 -7z"/>
<path d="M1380 165 c0 -13 -6 -16 -25 -13 -19 4 -25 1 -25 -11 0 -23 20 -41
46 -41 28 0 46 23 42 52 -4 27 -38 38 -38 13z"/>
<path d="M1275 139 c-5 -14 -13 -19 -26 -16 -22 6 -31 -5 -23 -27 8 -22 51
-31 69 -16 8 7 15 25 15 40 0 34 -26 48 -35 19z"/>
<path d="M943 131 c-8 -13 -19 -18 -33 -14 -29 8 -26 -23 4 -42 36 -24 68 -5
64 37 -4 37 -19 45 -35 19z"/>
<path d="M1053 131 c-4 -18 -11 -21 -29 -17 -19 5 -24 2 -24 -12 0 -37 51 -57
78 -30 17 17 15 53 -4 68 -13 11 -16 10 -21 -9z"/>
<path d="M1166 124 c-4 -10 -14 -14 -26 -11 -28 7 -28 -38 0 -53 38 -21 80 22
60 61 -13 23 -26 24 -34 3z"/>
</g>
</svg>
